<?xml version="1.0" encoding="utf-8"?>
<!-- Generator: Adobe Illustrator 18.1.1, SVG Export Plug-In . SVG Version: 6.00 Build 0)  -->
<!DOCTYPE svg PUBLIC "-//W3C//DTD SVG 1.1//EN" "http://www.w3.org/Graphics/SVG/1.1/DTD/svg11.dtd">
<svg version="1.1" xmlns="http://www.w3.org/2000/svg" xmlns:xlink="http://www.w3.org/1999/xlink" x="0px" y="0px"
	 viewBox="0 0 150 150" enable-background="new 0 0 150 150" xml:space="preserve">
<g id="guides">
</g>
<g id="artowrk">
	<g>
		<g>
			<g>
				<g opacity="0.25">
					<path fill="#919BA2" d="M102.4,81.1v3l4.1,4.1l2-2l3,3v-8.1H102.4z"/>
				</g>
				<g opacity="0.25">
					<path fill="#919BA2" d="M102.4,101.4v5.1h5.1L102.4,101.4z"/>
				</g>
				<g opacity="0.25">
					<path fill="#919BA2" d="M106.4,81.1v6.1l2-2l3,3v-7.1H106.4z"/>
				</g>
				<g opacity="0.25">
					<path fill="#919BA2" d="M85.1,92.3v14.2h9.1V88.2L85.1,92.3z"/>
				</g>
				<g opacity="0.25">
					<path fill="#919BA2" d="M89.2,91.2v15.2h5.1V88.2L89.2,91.2z"/>
				</g>
				<g opacity="0.25">
					<path fill="#919BA2" d="M50.7,60.8v45.7h9.1V84.1L53.7,74V60.8H50.7z"/>
				</g>
				<g opacity="0.25">
					<path fill="#919BA2" d="M54.7,76v30.4h5.1V83.1L54.7,76z"/>
				</g>
				<g opacity="0.25">
					<path fill="#919BA2" d="M67.9,91.2v15.2H77V92.3L67.9,91.2z"/>
				</g>
				<g opacity="0.25">
					<path fill="#919BA2" d="M72,91.2v15.2H77V92.3L72,91.2z"/>
				</g>
				<g opacity="0.25">
					<path fill="#919BA2" d="M33.4,48.6v57.8h9.1V48.6H33.4z"/>
				</g>
				<g opacity="0.25">
					<path fill="#919BA2" d="M37.5,48.6v57.8h5.1V48.6H37.5z"/>
				</g>
			</g>
			<g>
				<g>
					<g opacity="0.25">
						
							<rect x="96.8" y="100.1" transform="matrix(-0.7071 -0.7071 0.7071 -0.7071 118.2649 257.8565)" fill="#919BA2" width="31.6" height="8.6"/>
					</g>
					<g opacity="0.25">
						<polygon fill="#919BA2" points="105.4,89.2 127.8,111.5 129.8,110.5 106.4,87.2 						"/>
					</g>
					<g opacity="0.37">
						
							<rect x="95.7" y="102.6" transform="matrix(-0.7071 -0.7071 0.7071 -0.7071 115.8156 258.8709)" fill="#919BA2" width="31.6" height="5.7"/>
					</g>
					<g opacity="0.37">
						
							<rect x="94.7" y="105" transform="matrix(-0.7071 -0.7071 0.7071 -0.7071 113.3664 259.8855)" fill="#919BA2" width="31.6" height="2.9"/>
					</g>
					<g>
						<path fill="#919BA2" d="M79.1,89.2c-6,0-11.6-2.3-15.8-6.5c-4.2-4.2-6.5-9.8-6.5-15.8s2.3-11.6,6.5-15.8
							c4.2-4.2,9.8-6.5,15.8-6.5s11.6,2.3,15.8,6.5c4.2,4.2,6.5,9.8,6.5,15.8s-2.3,11.6-6.5,15.8C90.6,86.9,85,89.2,79.1,89.2z
							 M79.1,46.6c-5.4,0-10.5,2.1-14.3,5.9s-5.9,8.9-5.9,14.3s2.1,10.5,5.9,14.3s8.9,5.9,14.3,5.9c5.4,0,10.5-2.1,14.3-5.9
							c3.8-3.8,5.9-8.9,5.9-14.3s-2.1-10.5-5.9-14.3C89.6,48.7,84.5,46.6,79.1,46.6z"/>
					</g>
					<g opacity="0.25">
						<path fill="#919BA2" d="M92.3,80.2L90.2,78c6.1-6.1,6.1-16.1,0-22.2c-6.1-6.1-16.1-6.1-22.2,0l-2.2-2.2
							c7.3-7.3,19.2-7.3,26.5,0C99.6,60.9,99.6,72.9,92.3,80.2z"/>
					</g>
				</g>
				<g opacity="0.25">
					
						<rect x="94.5" y="87.6" transform="matrix(-0.7071 -0.7071 0.7071 -0.7071 105.2865 223.0604)" fill="#919BA2" width="8.6" height="4.3"/>
				</g>
			</g>
			<path opacity="0.75" fill="#919BA2" d="M79.4,64.9v-4c0.9,0.2,1.8,0.9,2.7,1.1c0.2,0.1,0.4,0.1,0.5,0.1c1,0,2-0.8,2-1.9
				c0-0.3-0.1-0.6-0.3-0.9c-0.8-1.2-3.3-1.9-4.9-2.1v-1.6c0-0.7-0.6-1.3-1.3-1.3c-0.8,0-1.4,0.6-1.4,1.3v1.5
				c-3.9,0.4-6.2,2.9-6.2,5.7c0,3.9,3.2,5,6.2,5.7v4.5c-1.3-0.2-2.3-0.7-3.3-1.3c-0.3-0.2-0.7-0.3-1.1-0.3c-1,0-1.9,0.8-1.9,1.9
				c0,0.3,0.1,0.6,0.3,0.9c0.9,1.4,3.7,2.3,6,2.5v1.4c0,0.7,0.6,1.3,1.4,1.3c0.7,0,1.3-0.6,1.3-1.3v-1.5c4.2-0.4,6.2-2.9,6.2-6
				C85.7,66.8,82.4,65.6,79.4,64.9z M76.7,64.2c-1.2-0.3-2-0.8-2-1.6c0-1,0.7-1.7,2-1.9V64.2z M79.4,73.1v-3.8
				c1.2,0.4,2.1,0.9,2.1,1.8C81.5,72,80.8,72.8,79.4,73.1z"/>
			<g>
				<polygon fill="#919BA2" points="19,114 19,27 17,27 17,116 115.6,116 113.6,114 				"/>
			</g>
		</g>
		<path fill="#919BA2" d="M132.8,108.5l-19.3-19.3V76h-8.7c1-2.9,1.6-5.9,1.6-9.1c0-15.1-12.3-27.4-27.4-27.4
			c-10.8,0-20.1,6.2-24.5,15.2h-10V42.6H24.3v65.9h84.2l12.2,12.2L132.8,108.5z M129.8,108.5l-9.1,9.1L99.3,96.3l9.1-9.1
			L129.8,108.5z M96.4,88.1c1.4-1.1,2.7-2.4,3.8-3.8l0.1-0.1l4.1,4.1l-4.1,4.1l-4.1-4.1L96.4,88.1z M110.5,79.1v7.1l-2-2l-2,2
			l-4.4-4.4c0.6-0.9,1.1-1.8,1.5-2.7H110.5z M79.1,42.6c13.4,0,24.3,10.9,24.3,24.3S92.5,91.2,79.1,91.2S54.7,80.3,54.7,66.9
			S65.6,42.6,79.1,42.6z M41.5,105.4H27.3V45.6h14.2V105.4z M44.6,105.4V57.8h8.7c-1,2.9-1.6,5.9-1.6,9.1c0,7.1,2.7,13.5,7.1,18.4
			v20.1H44.6z M61.8,105.4V88.2c4,3.2,8.9,5.4,14.2,5.9v11.3H61.8z M79.1,105.4V94.3c5.2,0,10.1-1.5,14.2-4v15.2H79.1z M96.3,105.4
			v-9.1v-4.1l2,2l-2,2l9.1,9.1H96.3z"/>
	</g>
</g>
</svg>
